<svg width="20" height="20" viewBox="0 0 20 20" fill="none" xmlns="http://www.w3.org/2000/svg">
<g id="ri:e-bike-2-fill">
<path id="Vector" d="M13.3333 0.833313C13.5543 0.833313 13.7663 0.92111 13.9226 1.07739C14.0789 1.23367 14.1667 1.44563 14.1667 1.66665V2.49998H18.3333V7.49998H16.6508L18.9392 13.7875C19.1023 14.2105 19.1774 14.6623 19.1599 15.1153C19.1424 15.5683 19.0327 16.013 18.8375 16.4221C18.6423 16.8313 18.3656 17.1963 18.0245 17.4949C17.6834 17.7935 17.2849 18.0194 16.8535 18.1587C16.4221 18.298 15.9668 18.3479 15.5155 18.3053C15.0642 18.2626 14.6263 18.1284 14.2286 17.9107C13.8309 17.6931 13.4818 17.3966 13.2027 17.0394C12.9235 16.6822 12.7201 16.2718 12.605 15.8333H9.06166C8.87227 16.5647 8.44015 17.2101 7.83607 17.6638C7.232 18.1176 6.49176 18.3527 5.73657 18.3309C4.98139 18.309 4.25601 18.0313 3.67921 17.5434C3.10242 17.0554 2.7084 16.3861 2.56166 15.645C2.29161 15.5039 2.06538 15.2915 1.90759 15.0309C1.7498 14.7702 1.66647 14.4713 1.66666 14.1666V5.83331C1.66666 5.6123 1.75446 5.40034 1.91074 5.24406C2.06702 5.08778 2.27898 4.99998 2.5 4.99998H8.33333C8.55434 4.99998 8.76631 5.08778 8.92259 5.24406C9.07887 5.40034 9.16666 5.6123 9.16666 5.83331V9.99998C9.16666 10.221 9.25446 10.433 9.41074 10.5892C9.56702 10.7455 9.77898 10.8333 10 10.8333H11.6667C11.8877 10.8333 12.0996 10.7455 12.2559 10.5892C12.4122 10.433 12.5 10.221 12.5 9.99998V2.49998H10V0.833313H13.3333ZM15.8333 13.3333C15.4789 13.3334 15.1337 13.4465 14.848 13.6562C14.5622 13.8658 14.3507 14.1611 14.2442 14.4992C14.1377 14.8372 14.1417 15.2004 14.2557 15.536C14.3697 15.8716 14.5877 16.1621 14.8781 16.3654C15.1684 16.5686 15.516 16.674 15.8704 16.6662C16.2247 16.6585 16.5673 16.538 16.8485 16.3222C17.1297 16.1064 17.3348 15.8066 17.4339 15.4663C17.5331 15.1261 17.5212 14.763 17.4 14.43L17.3858 14.3933C17.2638 14.0809 17.0503 13.8127 16.7733 13.6235C16.4963 13.4344 16.1687 13.3333 15.8333 13.3333ZM5.83333 13.3333C5.3913 13.3333 4.96738 13.5089 4.65482 13.8215C4.34226 14.134 4.16666 14.558 4.16666 15C4.16666 15.442 4.34226 15.8659 4.65482 16.1785C4.96738 16.4911 5.3913 16.6666 5.83333 16.6666C6.27536 16.6666 6.69928 16.4911 7.01184 16.1785C7.3244 15.8659 7.5 15.442 7.5 15C7.5 14.558 7.3244 14.134 7.01184 13.8215C6.69928 13.5089 6.27536 13.3333 5.83333 13.3333ZM7.5 6.66665H3.33333V8.33331H7.5V6.66665ZM16.6667 4.16665H14.1667V5.83331H16.6667V4.16665Z" fill="black"/>
</g>
</svg>
