<svg width="20" height="14" viewBox="0 0 20 14" fill="none" xmlns="http://www.w3.org/2000/svg">
<path d="M20 13.005C20 13.555 19.554 14 19.005 14H10.995C10.7311 14 10.478 13.8952 10.2914 13.7086C10.1048 13.522 10 13.2689 10 13.005C10 12.7411 10.1048 12.488 10.2914 12.3014C10.478 12.1148 10.7311 12.01 10.995 12.01H19.005C19.2689 12.01 19.522 12.1148 19.7086 12.3014C19.8952 12.488 20 12.7411 20 13.005ZM20 7C20 7.55 19.554 7.995 19.005 7.995H0.995001C0.73111 7.995 0.478028 7.89017 0.29143 7.70357C0.104831 7.51697 0 7.26389 0 7C0 6.73611 0.104831 6.48303 0.29143 6.29643C0.478028 6.10983 0.73111 6.005 0.995001 6.005H19.005C19.2689 6.005 19.522 6.10983 19.7086 6.29643C19.8952 6.48303 20 6.73611 20 7ZM19.005 1.99C19.2689 1.99 19.522 1.88517 19.7086 1.69857C19.8952 1.51197 20 1.25889 20 0.995001C20 0.73111 19.8952 0.478028 19.7086 0.29143C19.522 0.104831 19.2689 0 19.005 0H6.995C6.73111 0 6.47803 0.104831 6.29143 0.29143C6.10483 0.478028 6 0.73111 6 0.995001C6 1.25889 6.10483 1.51197 6.29143 1.69857C6.47803 1.88517 6.73111 1.99 6.995 1.99H19.005Z" fill="#333333"/>
</svg>
