<svg width="68" height="11" viewBox="0 0 68 11" fill="none" xmlns="http://www.w3.org/2000/svg">
<path d="M5.6 0L7.50354 3.37501L11.2 4.20163L8.68 7.11411L9.06099 11L5.6 9.42501L2.13901 11L2.52 7.11411L0 4.20163L3.69646 3.37501L5.6 0Z" fill="#F4CE14"/>
<path d="M19.8 0L21.7036 3.37501L25.4 4.20163L22.88 7.11411L23.261 11L19.8 9.42501L16.339 11L16.72 7.11411L14.2 4.20163L17.8965 3.37501L19.8 0Z" fill="#F4CE14"/>
<path d="M34 0L35.9035 3.37501L39.6 4.20163L37.08 7.11411L37.461 11L34 9.42501L30.539 11L30.92 7.11411L28.4 4.20163L32.0964 3.37501L34 0Z" fill="#F4CE14"/>
<path d="M48.2 0L50.1035 3.37501L53.8 4.20163L51.28 7.11411L51.661 11L48.2 9.42501L44.739 11L45.12 7.11411L42.6 4.20163L46.2965 3.37501L48.2 0Z" fill="#F4CE14"/>
<path d="M62.4 0L64.3035 3.37501L68 4.20163L65.48 7.11411L65.861 11L62.4 9.42501L58.939 11L59.32 7.11411L56.8 4.20163L60.4964 3.37501L62.4 0Z" fill="white"/>
<path d="M58.939 11L62.4 9.42501V0L60.4964 3.37501L56.8 4.20162L59.32 7.11411L58.939 11Z" fill="#F4CE14"/>
</svg>
